<?xml version="1.0" encoding="UTF-8"?> <svg xmlns="http://www.w3.org/2000/svg" width="120" height="20" viewBox="0 0 120 20" fill="none"> <path d="M13.623 0.447266H16.1536V6.14095H24.9019V8.63532H17.5092L24.9019 15.8845V19.391L16.1536 10.8224V19.391H13.623V0.447266Z" fill="black"></path> <path d="M8.40493 16.8973C7.91088 16.4274 7.3867 15.9212 6.8324 15.379C6.27809 14.8367 5.71776 14.2885 5.15141 13.7342C4.58506 13.1798 4.03075 12.6376 3.4885 12.1074C2.94625 11.5651 2.44014 11.0711 1.97019 10.6252C1.51229 10.1673 1.10861 9.76966 0.759155 9.43226C0.421753 9.09486 0.168701 8.8418 0 8.6731V6.14258H11.9838V8.63695H3.54272L11.9838 16.8973V19.3917H0V16.8973H8.40493Z" fill="black"></path> <path d="M33.2146 6.14258H30.7224V19.3915H42.7012V16.8993H33.2146V6.14258Z" fill="black"></path> <path d="M46.8367 6.14258H44.3445V19.3915H56.3232V16.8993H46.8367V6.14258Z" fill="black"></path> <path d="M26.5488 6.1416H29.041V19.3909H26.5488V6.1416Z" fill="black"></path> <path fill-rule="evenodd" clip-rule="evenodd" d="M27.4286 0.142578H28.2858V0.999721H29.1429V1.85686H30.0001V2.71401H29.1429V3.57115H28.2858V4.42829H27.4286V3.57115H26.5715V2.71401H25.7144V1.85686H26.5715V0.999721H27.4286V0.142578Z" fill="#84D8A5"></path> <path fill-rule="evenodd" clip-rule="evenodd" d="M60.4933 0.428711H57.9644V1.29604H57.9644V19.3893H60.4949V17.2203C61.1576 18.0638 61.9047 18.6663 62.7362 19.0278C63.5797 19.3772 64.4895 19.552 65.4655 19.552C66.4777 19.552 67.4357 19.3772 68.3395 19.0278C69.2553 18.6783 70.0566 18.2024 70.7435 17.5998C71.4303 16.9853 71.9726 16.2683 72.3702 15.4489C72.7679 14.6174 72.9667 13.7257 72.9667 12.7738C72.9667 11.8821 72.7799 11.0265 72.4064 10.2071C72.0328 9.38769 71.5147 8.67071 70.8519 8.05616C70.1892 7.42955 69.3939 6.92947 68.466 6.55592C67.5502 6.18236 66.55 5.99558 65.4655 5.99558C64.4895 5.99558 63.5737 6.19441 62.7181 6.59207C61.8626 6.98972 61.1215 7.56813 60.4949 8.32728V1.29604H60.4933V0.428711ZM63.4953 8.85146C64.1099 8.62251 64.7666 8.50803 65.4655 8.50803C66.1644 8.50803 66.8151 8.62251 67.4176 8.85146C68.0322 9.06837 68.5624 9.36962 69.0083 9.75522C69.4662 10.1408 69.8277 10.5927 70.0928 11.1109C70.3579 11.629 70.4904 12.1833 70.4904 12.7738C70.4904 13.3642 70.3579 13.9185 70.0928 14.4367C69.8277 14.9548 69.4662 15.4128 69.0083 15.8104C68.5624 16.196 68.0322 16.5033 67.4176 16.7322C66.8151 16.9491 66.1644 17.0576 65.4655 17.0576C64.7666 17.0576 64.1099 16.9491 63.4953 16.7322C62.8928 16.5033 62.3626 16.196 61.9047 15.8104C61.4468 15.4128 61.0853 14.9548 60.8202 14.4367C60.5551 13.9185 60.4226 13.3642 60.4226 12.7738C60.4226 12.1833 60.5551 11.629 60.8202 11.1109C61.0853 10.5927 61.4468 10.1408 61.9047 9.75522C62.3626 9.36962 62.8928 9.06837 63.4953 8.85146Z" fill="black"></path> <path d="M93.6904 19.5167C93.0036 19.5167 92.2745 19.4264 91.5033 19.2456C90.7442 19.0649 90.0392 18.7877 89.3885 18.4142C88.7378 18.0286 88.2016 17.5466 87.7798 16.9681C87.3581 16.3777 87.1472 15.6788 87.1472 14.8714C87.1472 14.0761 87.3521 13.3893 87.7618 12.8109C88.1835 12.2204 88.7137 11.7324 89.3524 11.3468C89.991 10.9612 90.696 10.678 91.4672 10.4972C92.2384 10.3044 92.9795 10.208 93.6904 10.208C94.1965 10.208 94.6665 10.2382 95.1003 10.2984C95.5461 10.3466 95.9739 10.437 96.3836 10.5695C96.7933 10.69 97.191 10.8587 97.5766 11.0756C97.9622 11.2805 98.3478 11.5396 98.7334 11.8529C98.7334 11.407 98.649 10.9913 98.4803 10.6057C98.3116 10.208 98.0827 9.8646 97.7935 9.5754C97.5043 9.28619 97.1608 9.05724 96.7632 8.88854C96.3776 8.71984 95.9619 8.63549 95.516 8.63549H88.1956V6.14111H95.751C96.5101 6.14111 97.2211 6.28571 97.8838 6.57492C98.5586 6.86412 99.1431 7.25575 99.6371 7.7498C100.143 8.24386 100.541 8.82829 100.83 9.5031C101.119 10.1659 101.264 10.8768 101.264 11.636V19.3902H98.7334V17.89C98.4562 18.1189 98.155 18.3358 97.8296 18.5407C97.5163 18.7335 97.1608 18.9022 96.7632 19.0468C96.3655 19.1914 95.9137 19.3059 95.4075 19.3902C94.9135 19.4746 94.3411 19.5167 93.6904 19.5167ZM94.2146 12.7205C93.5036 12.7205 92.865 12.7807 92.2986 12.9012C91.7323 13.0097 91.2503 13.1663 90.8526 13.3712C90.467 13.564 90.1658 13.7929 89.9489 14.058C89.744 14.3111 89.6416 14.5822 89.6416 14.8714C89.6416 15.1968 89.7621 15.492 90.0031 15.7571C90.2561 16.0222 90.5875 16.2451 90.9972 16.4259C91.419 16.6066 91.907 16.7512 92.4613 16.8597C93.0156 16.9561 93.6 17.0043 94.2146 17.0043C94.8412 17.0043 95.4316 16.9561 95.986 16.8597C96.5403 16.7512 97.0223 16.6066 97.432 16.4259C97.8537 16.2331 98.1791 16.0041 98.408 15.739C98.649 15.4739 98.7695 15.1847 98.7695 14.8714C98.7695 14.534 98.643 14.2328 98.3899 13.9677C98.1369 13.6905 97.7995 13.4616 97.3777 13.2808C96.956 13.1001 96.468 12.9615 95.9137 12.8651C95.3714 12.7687 94.805 12.7205 94.2146 12.7205Z" fill="black"></path> <path fill-rule="evenodd" clip-rule="evenodd" d="M77.082 19.3916H74.5898V13.1595V6.1423H77.082V7.80001C78.3018 6.77106 79.8777 6.15095 81.5984 6.15095H85.3356V8.64313H81.5984C79.1041 8.64313 77.082 10.6652 77.082 13.1595L77.082 19.3916Z" fill="black"></path> <path d="M102.867 6.14259H105.359V19.3919H102.867V6.14259Z" fill="black"></path> <path fill-rule="evenodd" clip-rule="evenodd" d="M103.714 0.142578H104.571V0.999721H105.429V1.85686H106.286V2.71401H105.429V3.57115H104.571V4.42829H103.714V3.57115H102.857V2.71401H102V1.85686H102.857V0.999721H103.714V0.142578Z" fill="#84D8A5"></path> <path fill-rule="evenodd" clip-rule="evenodd" d="M109.533 6.14258H107.041V13.1392C107.041 13.1465 107.041 13.1539 107.041 13.1612H107.041V19.3945H109.533V13.1435C109.543 10.6573 111.561 8.64481 114.049 8.64481H114.49C116.157 8.64481 117.508 9.99616 117.508 11.6631V19.3796H120V11.6631C120 8.61977 117.533 6.15262 114.49 6.15262H114.049C112.329 6.15262 110.753 6.77273 109.533 7.80166V6.14258Z" fill="black"></path> </svg> 