<?xml version="1.0"?>
<svg width="80" height="80" xmlns="http://www.w3.org/2000/svg" xmlns:svg="http://www.w3.org/2000/svg">
 <g class="layer">
  <title>Layer 1</title>
  <path clip-rule="evenodd" d="m28.89,31.39c-4.75,0 -8.61,3.85 -8.61,8.61c0,4.76 3.86,8.61 8.61,8.61l8.61,0l0,-8.44c0,-0.05 0,-0.11 0,-0.17c0,-0.06 0,-0.12 0,-0.17l0,-8.44l-8.61,0zm8.61,-5l-8.61,0c-4.75,0 -8.61,-3.86 -8.61,-8.61c0,-4.76 3.86,-8.61 8.61,-8.61l8.61,0l0,17.22zm5,-17.22l0,17.22l8.61,0c4.76,0 8.61,-3.86 8.61,-8.61c0,-4.76 -3.85,-8.61 -8.61,-8.61l-8.61,0zm8.61,22.22c-4.71,0 -8.53,3.78 -8.61,8.47l0,0.28c0.08,4.69 3.9,8.47 8.61,8.47c4.76,0 8.61,-3.85 8.61,-8.61c0,-4.76 -3.85,-8.61 -8.61,-8.61zm-22.22,22.22c-4.75,0 -8.61,3.86 -8.61,8.61c0,4.76 3.85,8.61 8.61,8.61c4.76,0 8.61,-3.85 8.61,-8.61l0,-8.61l-8.61,0z" fill="#3b82f6" fill-rule="evenodd" id="svg_1"/>
 </g>
</svg>