<?xml version="1.0"?>
<svg width="80" height="80" xmlns="http://www.w3.org/2000/svg" xmlns:svg="http://www.w3.org/2000/svg">
 <g class="layer">
  <title>Layer 1</title>
  <path d="m33.33,56.67l-3.33,0l0,-25l17.39,26.09c1.57,2.34 4.43,3.45 7.17,2.77l0.84,-0.21c0.75,-0.19 1.27,-0.86 1.27,-1.62l0,-35.37c0,0 3.33,0 3.33,-3.33l-10,0c-3.33,0 -3.33,3.33 -3.33,3.33l3.33,0l0,20l-16.17,-22.63c-0.31,-0.44 -0.82,-0.7 -1.35,-0.7l-9.15,0c-3.33,0 -3.33,3.33 -3.33,3.33l3.33,0l0,33.34c0,0 -3.33,0 -3.33,3.33l10,0c3.33,0 3.33,-3.33 3.33,-3.33z" fill="#3b82f6" id="svg_1"/>
  <path clip-rule="evenodd" d="m3.33,13.33c0,-5.52 4.48,-10 10,-10l53.34,0c5.52,0 10,4.48 10,10l0,53.34c0,5.52 -4.48,10 -10,10l-53.34,0c-5.52,0 -10,-4.48 -10,-10l0,-53.34zm10,-3.33l53.34,0c1.84,0 3.33,1.49 3.33,3.33l0,53.34c0,1.84 -1.49,3.33 -3.33,3.33l-53.34,0c-1.84,0 -3.33,-1.49 -3.33,-3.33l0,-53.34c0,-1.84 1.49,-3.33 3.33,-3.33z" fill="#3b82f6" fill-rule="evenodd" id="svg_2"/>
 </g>
</svg>