<?xml version="1.0" encoding="UTF-8" standalone="no" ?>
<!DOCTYPE svg PUBLIC "-//W3C//DTD SVG 1.1//EN" "http://www.w3.org/Graphics/SVG/1.1/DTD/svg11.dtd">
<svg xmlns="http://www.w3.org/2000/svg" xmlns:xlink="http://www.w3.org/1999/xlink" version="1.1" width="1080" height="1080" viewBox="0 0 1080 1080" xml:space="preserve">
<desc>Created with Fabric.js 5.2.4</desc>
<defs>
</defs>
<rect x="0" y="0" width="100%" height="100%" fill="transparent"></rect>
<g transform="matrix(1 0 0 1 540 540)" id="67d5e45d-5285-4e5b-8831-c28bb8f90872"  >
<rect style="stroke: none; stroke-width: 1; stroke-dasharray: none; stroke-linecap: butt; stroke-dashoffset: 0; stroke-linejoin: miter; stroke-miterlimit: 4; fill: rgb(255,255,255); fill-rule: nonzero; opacity: 1; visibility: hidden;" vector-effect="non-scaling-stroke"  x="-540" y="-540" rx="0" ry="0" width="1080" height="1080" />
</g>
<g transform="matrix(1 0 0 1 540 540)" id="0b9c8234-3026-44ee-9c68-cfe2516f6b25"  >
</g>
<g transform="matrix(1 0 0 1 537.91 541.27)"  >
<path style="stroke: none; stroke-width: 1; stroke-dasharray: none; stroke-linecap: butt; stroke-dashoffset: 0; stroke-linejoin: miter; stroke-miterlimit: 4; fill: rgb(79,81,119); fill-rule: nonzero; opacity: 1;" vector-effect="non-scaling-stroke"  transform=" translate(-8.48, -11.65)" d="M 8.47989 20.1305 C 13.1632 20.1305 16.9598 16.3339 16.9598 11.6507 C 16.9598 6.96743 13.1632 3.1709 8.47989 3.1709 C 3.79658 3.1709 0 6.96743 0 11.6507 C 0 16.3339 3.79658 20.1305 8.47989 20.1305 Z" stroke-linecap="round" />
</g>
<g transform="matrix(1 0 0 1 542.15 538.66)"  >
<path style="stroke: rgb(59,130,246); stroke-opacity: 0.9; stroke-width: 1.73945; stroke-dasharray: none; stroke-linecap: butt; stroke-dashoffset: 0; stroke-linejoin: miter; stroke-miterlimit: 4; fill: none; fill-rule: nonzero; opacity: 1;" vector-effect="non-scaling-stroke"  transform=" translate(-12.72, -9.04)" d="M 20.7668 9.04492 C 20.7668 13.488 17.165 17.0899 12.7218 17.0899 C 8.27863 17.0899 4.67676 13.488 4.67676 9.04492 C 4.67676 4.60184 8.27863 1 12.7218 1 C 17.165 1 20.7668 4.60184 20.7668 9.04492 Z" stroke-linecap="round" />
</g>
<g transform="matrix(NaN NaN NaN NaN 0 0)"  >
<g style=""   >
</g>
</g>
<g transform="matrix(1 0 0 1 540 540)"  >
<g style="" vector-effect="non-scaling-stroke"   >
		<g transform="matrix(1 0 0 1 -2.09 1.27)"  >
<ellipse style="stroke: none; stroke-width: 1; stroke-dasharray: none; stroke-linecap: butt; stroke-dashoffset: 0; stroke-linejoin: miter; stroke-miterlimit: 4; fill: rgb(59,130,246); fill-opacity: 0.9; fill-rule: nonzero; opacity: 1;" vector-effect="non-scaling-stroke"  cx="0" cy="0" rx="8.47989" ry="8.47979" />
</g>
		<g transform="matrix(1 0 0 1 2.15 -1.34)"  >
<path style="stroke: rgb(33,33,49); stroke-width: 1.73945; stroke-dasharray: none; stroke-linecap: butt; stroke-dashoffset: 0; stroke-linejoin: miter; stroke-miterlimit: 4; fill: rgb(59,130,246); fill-opacity: 0.9; fill-rule: nonzero; opacity: 1;" vector-effect="non-scaling-stroke"  transform=" translate(-12.73, -8.91)" d="M 20.7742 8.91465 C 20.7742 13.3577 17.1724 16.9596 12.7292 16.9596 C 8.28605 16.9596 4.68418 13.3577 4.68418 8.91465 C 4.68418 4.47157 8.28605 0.869727 12.7292 0.869727 C 17.1724 0.869727 20.7742 4.47157 20.7742 8.91465 Z" stroke-linecap="round" />
</g>
</g>
</g>
<g transform="matrix(NaN NaN NaN NaN 0 0)"  >
<g style=""   >
</g>
</g>
<g transform="matrix(1 0 0 1 540 540)" id="3c159ed4-cd67-4558-b690-4f3f5509793a"  >
<path style="stroke: rgb(0,0,0); stroke-width: 0; stroke-dasharray: none; stroke-linecap: butt; stroke-dashoffset: 0; stroke-linejoin: miter; stroke-miterlimit: 4; fill: rgb(154,188,244); fill-opacity: 0.9; fill-rule: nonzero; opacity: 1;" vector-effect="non-scaling-stroke"  transform=" translate(-252.5, -252.5)" d="M 414.573 43.0779 C 455.283 71.8338 484.948 116.39 497.571 164.106 C 509.879 212.137 505.461 263.329 494.731 317.365 C 483.686 371.401 466.013 427.965 427.827 462.093 C 389.642 496.537 330.312 508.545 274.454 504.121 C 218.595 499.697 165.893 478.525 125.814 445.029 C 85.4189 411.217 57.6476 364.765 33.9788 312.309 C 10.31 259.853 -9.25622 201.077 4.62947 151.466 C 18.1996 101.538 64.906 60.7738 114.768 34.8619 C 164.946 9.26592 217.964 -1.16205 270.351 0.101944 C 322.738 1.36594 374.178 14.3219 414.573 43.0779 Z" stroke-linecap="round" />
</g>
<g transform="matrix(NaN NaN NaN NaN 0 0)"  >
<g style=""   >
</g>
</g>
</svg>