<?xml version="1.0"?>
<svg width="81" height="81" xmlns="http://www.w3.org/2000/svg" xmlns:svg="http://www.w3.org/2000/svg">
 <g class="layer">
  <title>Layer 1</title>
  <path d="m73.03,13.08l-14.42,-6.94c-0.81,-0.4 -1.73,-0.53 -2.62,-0.38c-0.89,0.16 -1.71,0.58 -2.35,1.22l-47.19,43.02c-0.57,0.52 -0.91,1.25 -0.95,2.02c-0.04,0.77 0.23,1.53 0.75,2.1c0.06,0.07 0.13,0.13 0.19,0.19l3.86,3.5c0.5,0.46 1.15,0.73 1.83,0.76c0.68,0.03 1.35,-0.18 1.89,-0.59l56.84,-43.1c0.42,-0.33 0.94,-0.53 1.47,-0.58c0.54,-0.05 1.08,0.05 1.56,0.29c0.48,0.24 0.89,0.61 1.18,1.06c0.28,0.46 0.43,0.99 0.43,1.53l0,-0.17c0,-0.82 -0.23,-1.63 -0.67,-2.32c-0.44,-0.7 -1.06,-1.26 -1.8,-1.61z" fill="#3b82f6" id="svg_1"/>
  <path d="m73.03,67.92l-14.42,6.95c-0.81,0.39 -1.73,0.52 -2.62,0.37c-0.89,-0.16 -1.71,-0.58 -2.35,-1.22l-47.19,-43.02c-0.57,-0.52 -0.91,-1.25 -0.95,-2.02c-0.04,-0.77 0.23,-1.53 0.75,-2.1c0.06,-0.07 0.13,-0.13 0.19,-0.19l3.86,-3.5c0.5,-0.46 1.15,-0.73 1.83,-0.76c0.68,-0.03 1.35,0.18 1.9,0.59l56.83,43.1c0.42,0.33 0.94,0.53 1.47,0.58c0.54,0.05 1.08,-0.05 1.56,-0.29c0.48,-0.24 0.89,-0.61 1.18,-1.07c0.28,-0.45 0.43,-0.98 0.43,-1.52l0,0.18c0,0.82 -0.24,1.62 -0.67,2.32c-0.44,0.69 -1.07,1.25 -1.8,1.6z" fill="#3b82f6" id="svg_2"/>
  <path d="m58.61,74.87c-0.81,0.39 -1.73,0.52 -2.62,0.37c-0.89,-0.15 -1.71,-0.58 -2.35,-1.22c0.36,0.36 0.81,0.6 1.31,0.69c0.49,0.1 1,0.05 1.47,-0.15c0.47,-0.19 0.86,-0.52 1.15,-0.93c0.28,-0.42 0.43,-0.92 0.43,-1.42l0,-63.42c0,-0.51 -0.15,-1 -0.43,-1.42c-0.28,-0.43 -0.68,-0.75 -1.15,-0.95c-0.47,-0.19 -0.98,-0.24 -1.48,-0.14c-0.5,0.1 -0.96,0.34 -1.31,0.7c0.64,-0.64 1.46,-1.06 2.35,-1.22c0.89,-0.15 1.8,-0.02 2.62,0.37l14.41,6.93c0.75,0.36 1.37,0.92 1.81,1.61c0.44,0.7 0.68,1.51 0.68,2.33l0,47c0,0.82 -0.23,1.63 -0.67,2.33c-0.44,0.69 -1.07,1.25 -1.81,1.61l-14.41,6.93z" fill="#3b82f6" id="svg_3"/>
 </g>
</svg>