<?xml version="1.0"?>
<svg width="80" height="80" xmlns="http://www.w3.org/2000/svg" xmlns:svg="http://www.w3.org/2000/svg">
 <defs>
  <clipPath id="clip0_132_470">
   <rect fill="white" height="80" id="svg_1" width="80"/>
  </clipPath>
 </defs>
 <g class="layer">
  <title>Layer 1</title>
  <g clip-path="url(#clip0_132_470)" id="svg_2">
   <path clip-rule="evenodd" d="m75.1,20.81c0.17,1.27 0.27,2.64 0.27,4.11c0,7.03 -0.65,7.43 -15.26,49.66c11.89,-6.94 19.89,-19.82 19.89,-34.58c0,-6.96 -1.78,-13.5 -4.9,-19.19zm-34.4,22.69l-12,34.87c8.1,2.39 16.68,2.14 24.58,-0.63c-0.1,-0.18 -0.2,-0.36 -0.28,-0.56l-12.3,-33.68zm26.3,-5.52c0,-4.94 -1.77,-8.37 -3.3,-11.03c-2.02,-3.3 -3.92,-6.09 -3.92,-9.38c0,-3.68 2.79,-7.1 6.72,-7.1c0.17,0 0.34,0.02 0.51,0.03c-7.11,-6.52 -16.59,-10.5 -27.01,-10.5c-13.97,0 -26.27,7.17 -33.42,18.03c2.55,0.08 5.97,0.11 13.24,-0.46c2.15,-0.13 2.4,3.04 0.25,3.29c0,0 -2.17,0.26 -4.58,0.39l14.57,43.33l8.75,-26.26l-6.23,-17.08c-2.15,-0.12 -4.19,-0.38 -4.19,-0.38c-2.16,-0.12 -1.91,-3.42 0.25,-3.29c8.27,0.63 12.5,0.68 21.2,0c2.15,-0.13 2.41,3.04 0.25,3.29c0,0 -2.17,0.26 -4.58,0.38l14.46,43c5.71,-19.07 7.03,-22.26 7.03,-26.26zm-67,2.02c0,15.83 9.2,29.52 22.54,36l-19.08,-52.28c-2.22,4.98 -3.46,10.48 -3.46,16.28z" fill="#3b82f6" fill-rule="evenodd" id="svg_3"/>
  </g>
 </g>
</svg>